Coordinates
version=1
nRows=5
nColumns=40
inDegrees=yes

Units are S.I. units (second, meters, Newtons, ...)
Angles are in degrees.

endheader
time	pelvis_tilt	pelvis_list	pelvis_rotation	pelvis_tx	pelvis_ty	pelvis_tz	hip_flexion_r	hip_adduction_r	hip_rotation_r	knee_angle_r	knee_angle_r_beta	ankle_angle_r	subtalar_angle_r	mtp_angle_r	hip_flexion_l	hip_adduction_l	hip_rotation_l	knee_angle_l	knee_angle_l_beta	ankle_angle_l	subtalar_angle_l	mtp_angle_l	lumbar_extension	lumbar_bending	lumbar_rotation	arm_flex_r	arm_add_r	arm_rot_r	elbow_flex_r	pro_sup_r	wrist_flex_r	wrist_dev_r	arm_flex_l	arm_add_l	arm_rot_l	elbow_flex_l	pro_sup_l	wrist_flex_l	wrist_dev_l
     28.87000000	     -1.39593545	     -2.76056596	      0.55197766	      1.10045542	      0.93055941	      0.42942218	     28.67955469	     -5.88286173	     -4.93972830	     70.61961231	     70.61961231	     -4.24280494	    -15.47526721	     -0.50031795	     15.17626662	     -3.78301289	     -4.85121847	     24.01419513	     24.01419513	     12.23148043	    -13.45427109	     -3.46478596	    -10.31669496	      3.70242000	      1.76296242	      4.61408000	    -12.79281356	     -0.38691116	     36.44600458	     45.29046662	      0.00000000	      0.00000000	     18.07590102	    -14.51767240	      4.29270209	     48.47675203	     45.75937147	      0.00000000	      0.00000000
     28.88300000	     -1.48451675	     -2.80185691	     -0.02506251	      1.10029439	      0.93141113	      0.42959264	     29.48760936	     -5.80054470	     -4.86422303	     69.19240156	     69.19240156	     -3.78667311	    -15.47513503	     -0.61310000	     14.49292512	     -3.84189881	     -5.18569924	     23.43350729	     23.43350729	     12.33863658	    -13.66064857	     -3.39251921	    -10.40124169	      3.80528735	      2.24524389	      3.11596254	    -13.06926517	     -0.39343741	     35.04989270	     45.34539909	      0.00000000	      0.00000000	     18.90549827	    -14.50754374	      4.04492851	     49.71275552	     45.81457058	      0.00000000	      0.00000000
     28.89600000	     -1.55881975	     -2.89346649	     -0.58780159	      1.10016360	      0.93230929	      0.42981227	     30.14229028	     -5.62923859	     -4.85175358	     67.51365410	     67.51365410	     -3.34111366	    -15.52412587	     -0.61439949	     13.75963071	     -3.94661415	     -5.51166705	     22.78241171	     22.78241171	     12.43498753	    -13.79118477	     -3.32617566	    -10.50604445	      3.96563946	      2.61776329	      1.73752435	    -13.29882947	     -0.47827348	     33.68272463	     45.40452228	      0.00000000	      0.00000000	     19.48006978	    -14.55414787	      3.66993524	     51.32601708	     45.88163740	      0.00000000	      0.00000000
     28.90900000	     -1.64340878	     -2.95476595	     -1.12908574	      1.10001184	      0.93306720	      0.43008930	     30.70757850	     -5.49654424	     -4.89287966	     65.60408117	     65.60408117	     -2.88630298	    -15.49365464	     -0.64103329	     13.09191302	     -4.01936309	     -5.85289694	     22.19745415	     22.19745415	     12.31583286	    -14.05259386	     -3.62877484	    -10.66581064	      4.07076780	      2.05325169	      1.54455854	    -13.03691185	     -1.32520910	     30.79489880	     45.61638178	      0.00000000	      0.00000000	     18.58616126	    -15.28567991	      2.19492088	     55.51690472	     46.10094986	      0.00000000	      0.00000000
     28.92200000	     -1.76944391	     -3.04919796	     -1.67854016	      1.09986263	      0.93369948	      0.43041906	     31.18504188	     -5.26606755	     -4.90620117	     63.37202074	     63.37202074	     -2.29476019	    -15.38977725	     -0.55387336	     12.44338787	     -4.12141341	     -6.18455963	     21.57412031	     21.57412031	     12.46359984	    -14.11830566	     -3.52611034	    -10.72278130	      4.22873044	      2.45025704	      0.27557074	    -13.31089225	     -1.44230174	     29.64518115	     45.67323256	      0.00000000	      0.00000000	     19.17996782	    -15.21341217	      1.59994906	     56.88957068	     46.18778203	      0.00000000	      0.00000000
